<?xml version="1.0" encoding="utf-8"?>

<svg version="1.1" xmlns="http://www.w3.org/2000/svg" xmlns:xlink="http://www.w3.org/1999/xlink" width="34" height="51">
<g transform="translate(0, 34)">
  <style type="text/css" xmlns="http://www.w3.org/2000/svg">
	  .st0{fill-rule:evenodd;clip-rule:evenodd;fill:#FF8800;}
  </style>
  <g xmlns="http://www.w3.org/2000/svg">
	  <rect x="1" y="1" fill="#C0C0C0" width="14" height="14" />
  </g>
  <g xmlns="http://www.w3.org/2000/svg">
	  <rect x="3" y="3" fill="#FFFFFF" width="10" height="10" />
  </g>
  <path class="st0" d="M4,7l2.5,3L12,4v3l-5.5,6L4,10V7z" xmlns="http://www.w3.org/2000/svg" />
</g>

<g transform="translate(17, 17)">
  <style type="text/css" xmlns="http://www.w3.org/2000/svg">
	  .st1{opacity:0.5;fill-rule:evenodd;clip-rule:evenodd;fill:#FF8800;}
  </style>
  <g opacity="0.5" xmlns="http://www.w3.org/2000/svg">
	  <rect x="1" y="1" fill="#C0C0C0" width="14" height="14" />
  </g>
  <g opacity="0.5" xmlns="http://www.w3.org/2000/svg">
	  <rect x="3" y="3" fill="#FFFFFF" width="10" height="10" />
  </g>
  <path class="st1" d="M4,7l2.5,3L12,4v3l-5.5,6L4,10V7z" xmlns="http://www.w3.org/2000/svg" />
</g>

<g transform="translate(17, 34)">
  <g xmlns="http://www.w3.org/2000/svg">
	  <rect x="1" y="1" fill="#C0C0C0" width="14" height="14" />
  </g>
  <g xmlns="http://www.w3.org/2000/svg">
	  <rect x="3" y="3" fill="#FFFFFF" width="10" height="10" />
  </g>
  <rect x="4" y="4" fill="#FF8800" width="8" height="8" xmlns="http://www.w3.org/2000/svg" />
</g>

<g transform="translate(17, 0)">
<style type="text/css" xmlns="http://www.w3.org/2000/svg">
	.st2{opacity:0.5;fill:#FF8800;}
</style>
<g opacity="0.5" xmlns="http://www.w3.org/2000/svg">
	<rect x="1" y="1" fill="#C0C0C0" width="14" height="14" />
</g>
<g opacity="0.5" xmlns="http://www.w3.org/2000/svg">
	<rect x="3" y="3" fill="#FFFFFF" width="10" height="10" />
</g>
<rect x="4" y="4" class="st2" width="8" height="8" xmlns="http://www.w3.org/2000/svg" />
</g>

<g transform="translate(0, 17)">
  <g xmlns="http://www.w3.org/2000/svg">
	  <rect x="1" y="1" fill="#C0C0C0" width="14" height="14" />
  </g>
  <g xmlns="http://www.w3.org/2000/svg">
	  <rect x="3" y="3" fill="#FFFFFF" width="10" height="10" />
  </g>
</g>

<g transform="translate(0, 0)">
  <g opacity="0.5" xmlns="http://www.w3.org/2000/svg">
	  <rect x="1" y="1" fill="#C0C0C0" width="14" height="14" />
  </g>
  <g opacity="0.5" xmlns="http://www.w3.org/2000/svg">
	  <rect x="3" y="3" fill="#FFFFFF" width="10" height="10" />
  </g>
</g>


</svg>

