<svg xmlns="http://www.w3.org/2000/svg" width="600" height="400" viewBox="0 0 600 400"><rect width="100%" height="100%" fill="#DDDDDD"/><path fill="#999999" d="M130.53 200.48h6.73q2.48 0 4.32-.62 1.84-.62 3.07-1.77 1.22-1.16 1.82-2.82.61-1.65.61-3.7 0-1.94-.61-3.52-.6-1.57-1.81-2.68-1.2-1.1-3.05-1.69-1.84-.58-4.35-.58h-6.73v17.38Zm-9.02-24.35h15.75q4.86 0 8.41 1.14t5.86 3.18q2.31 2.04 3.43 4.89 1.13 2.85 1.13 6.23 0 3.52-1.18 6.45-1.17 2.93-3.51 5.04-2.35 2.11-5.88 3.29-3.54 1.17-8.26 1.17h-6.73v17.05h-9.02v-48.44Zm47.47 16.15.51 3.88q1.6-3.08 3.82-4.84 2.21-1.76 5.22-1.76 2.38 0 3.82 1.04l-.54 6.2q-.16.6-.48.85-.32.25-.86.25-.5 0-1.49-.16-.98-.17-1.92-.17-1.38 0-2.45.4-1.07.4-1.92 1.16-.86.75-1.51 1.82t-1.22 2.45v21.17h-8.28V190.2h4.86q1.27 0 1.77.45.51.45.67 1.63Zm24.22 11.15h15.62q0-1.61-.46-3.03-.45-1.42-1.35-2.5-.91-1.07-2.3-1.69-1.39-.62-3.23-.62-3.59 0-5.65 2.05-2.06 2.04-2.63 5.79Zm21.11 4.99h-21.27q.2 2.65.94 4.58.73 1.92 1.94 3.18 1.2 1.25 2.86 1.87 1.66.62 3.67.62t3.47-.47q1.46-.46 2.54-1.03 1.09-.57 1.91-1.04.82-.47 1.59-.47 1.04 0 1.55.77l2.37 3.01q-1.37 1.61-3.08 2.7t-3.57 1.74q-1.85.66-3.78.92-1.93.27-3.74.27-3.58 0-6.66-1.19t-5.36-3.51q-2.28-2.33-3.59-5.77-1.3-3.43-1.3-7.95 0-3.52 1.14-6.62 1.13-3.1 3.26-5.39 2.13-2.3 5.19-3.64 3.07-1.34 6.92-1.34 3.25 0 6 1.04t4.72 3.03q1.98 2 3.1 4.89 1.12 2.9 1.12 6.62 0 1.88-.4 2.53-.4.65-1.54.65Zm32.6-18.22h6.53l-13.64 34.37h-7.5l-13.64-34.37h6.84q.94 0 1.56.43.62.44.82 1.11l6.63 18.36q.54 1.61.94 3.15.4 1.54.7 3.08.34-1.54.74-3.08.4-1.54.97-3.15l6.77-18.36q.23-.67.83-1.11.61-.43 1.45-.43Zm11.18 0h8.31v34.37h-8.31V190.2Zm9.45-10.02q0 1.07-.43 2.01-.44.94-1.16 1.64-.72.71-1.69 1.13-.97.41-2.08.41-1.07 0-2.03-.41-.95-.42-1.65-1.13-.71-.7-1.13-1.64-.41-.94-.41-2.01 0-1.1.41-2.07.42-.98 1.13-1.68.7-.7 1.65-1.12.96-.42 2.03-.42 1.11 0 2.08.42t1.69 1.12q.72.7 1.16 1.68.43.97.43 2.07Zm13.84 23.25h15.61q0-1.61-.45-3.03-.46-1.42-1.36-2.5-.91-1.07-2.3-1.69-1.39-.62-3.23-.62-3.58 0-5.64 2.05-2.06 2.04-2.63 5.79Zm21.1 4.99h-21.27q.2 2.65.94 4.58.73 1.92 1.94 3.18 1.21 1.25 2.86 1.87 1.66.62 3.67.62t3.47-.47q1.46-.46 2.55-1.03 1.08-.57 1.91-1.04.82-.47 1.59-.47 1.04 0 1.54.77l2.38 3.01q-1.38 1.61-3.09 2.7-1.7 1.09-3.56 1.74-1.86.66-3.79.92-1.93.27-3.73.27-3.59 0-6.67-1.19t-5.36-3.51q-2.28-2.33-3.59-5.77-1.3-3.43-1.3-7.95 0-3.52 1.14-6.62t3.26-5.39q2.13-2.3 5.2-3.64 3.06-1.34 6.91-1.34 3.25 0 6 1.04t4.72 3.03q1.98 2 3.1 4.89 1.12 2.9 1.12 6.62 0 1.88-.4 2.53-.4.65-1.54.65Zm50.92-18.22h6.3l-10.92 34.37h-6.63q-1.14 0-1.58-1.47l-6.16-19.87q-.3-1-.56-1.99-.25-.99-.41-2-.21 1.01-.46 2.03-.25 1.02-.55 2.03l-6.26 19.8q-.41 1.47-1.78 1.47h-6.36l-10.89-34.37h6.6q.9 0 1.54.43.64.44.84 1.11l4.92 18.36q.37 1.51.65 2.95.29 1.44.49 2.88.37-1.44.79-2.88.42-1.44.88-2.95l5.7-18.43q.2-.67.79-1.1.58-.44 1.42-.44h3.65q.87 0 1.49.44.62.43.82 1.1l5.53 18.43q.44 1.51.82 2.96.39 1.46.76 2.9.43-2.85 1.24-5.86l5.05-18.36q.24-.67.84-1.11.6-.43 1.44-.43Zm74.77 10.15q0 5.33-1.75 9.87-1.76 4.53-4.98 7.85-3.22 3.32-7.74 5.18-4.52 1.86-10.05 1.86-5.49 0-10.01-1.86-4.53-1.86-7.76-5.18-3.23-3.32-5.01-7.85-1.77-4.54-1.77-9.87 0-5.33 1.77-9.87 1.78-4.54 5.01-7.85 3.23-3.32 7.76-5.18 4.52-1.86 10.01-1.86 3.69 0 6.94.86 3.25.85 5.96 2.41t4.87 3.78q2.16 2.23 3.67 4.98 1.51 2.75 2.3 5.96.78 3.22.78 6.77Zm-9.21 0q0-3.99-1.07-7.15-1.07-3.17-3.05-5.38-1.98-2.21-4.81-3.38-2.83-1.18-6.38-1.18t-6.38 1.18q-2.83 1.17-4.82 3.38-2 2.21-3.07 5.38-1.07 3.16-1.07 7.15t1.07 7.15q1.07 3.17 3.07 5.36 1.99 2.2 4.82 3.37t6.38 1.17q3.55 0 6.38-1.17t4.81-3.37q1.98-2.19 3.05-5.36 1.07-3.16 1.07-7.15Zm26.53 24.22h-8.27v-28.14l-2.98-.47q-.97-.2-1.56-.69-.59-.48-.59-1.39v-3.38h5.13v-2.55q0-2.94.89-5.29.88-2.34 2.54-3.99 1.66-1.64 4.04-2.51 2.38-.87 5.36-.87 2.38 0 4.42.64l-.17 4.15q-.03.47-.26.76-.24.28-.62.43-.39.15-.89.2-.5.05-1.07.05-1.48 0-2.63.32-1.16.32-1.96 1.11-.81.78-1.23 2.07-.41 1.29-.41 3.2v2.28h8.94v5.9h-8.68v28.17Zm24.02 0h-8.27v-28.14l-2.98-.47q-.97-.2-1.56-.69-.59-.48-.59-1.39v-3.38h5.13v-2.55q0-2.94.89-5.29.88-2.34 2.54-3.99 1.66-1.64 4.04-2.51 2.38-.87 5.36-.87 2.38 0 4.42.64l-.17 4.15q-.03.47-.26.76-.24.28-.62.43-.39.15-.89.2-.5.05-1.07.05-1.48 0-2.63.32-1.16.32-1.96 1.11-.81.78-1.23 2.07-.42 1.29-.42 3.2v2.28h8.95v5.9h-8.68v28.17Z"/></svg>