<svg height="512" viewBox="0 0 60 60" width="512" xmlns="http://www.w3.org/2000/svg"><g id="Page-1" fill="none" fill-rule="evenodd"><g id="040---Pin" fill="rgb(0,0,0)" fill-rule="nonzero"><path id="Shape" d="m55.564 23.105c.7961596.0022414 1.5601786-.3138796 2.122-.878l1.44-1.441c.562719-.5626237.8788593-1.3257625.8788593-2.1215s-.3161403-1.5588763-.8788593-2.1215l-15.67-15.669c-1.1868528-1.13346571-3.0551472-1.13346571-4.242 0l-1.441 1.44c-1.169058 1.17275366-1.169058 3.07024634 0 4.243l.716.715c-2.695 2.595-12.489 11.728-19.669 14.5l-3.111-3.111c-1.1866481-1.1339763-3.0553519-1.1339763-4.242 0l-1.441 1.439c-1.17114581 1.1714996-1.17114581 3.0705004 0 4.242l9.974 9.975-17.791 17.791c-.24277658.2431803-.41936557.5443798-.513.875l-1.6 4.425c-.01218235.0325518-.02187685.0659811-.029.1-.14826348.5968927-.01480561 1.228813.36215194 1.714782.37695754.4859691.95583622.7723844 1.57084806.777218.16625152-.000411.33182363-.0212334.493-.062.03390571-.0079821.06729957-.0180003.1-.03l4.426-1.6c.33010719-.0936261.63090686-.2698382.874-.512l17.79-17.796 9.973 9.974c1.1729805 1.168509 3.0700195 1.168509 4.243 0l1.442-1.441c1.1711458-1.1714996 1.1711458-3.0705004 0-4.242l-3.112-3.112c2.776-7.179 11.904-16.973 14.499-19.668l.715.716c.5616402.5637796 1.3252088.8798631 2.121.878zm-16.376-19.377 1.44-1.44c.3956857-.37765187 1.0183143-.37765187 1.414 0l15.67 15.67c.3903819.3904999.3903819 1.0235001 0 1.414l-1.441 1.441c-.3956857.3776519-1.0183143.3776519-1.414 0l-15.669-15.67c-.187777-.18756826-.2932867-.44209075-.2932867-.7075s.1055097-.51993174.2932867-.7075zm-32.71 52.649c-.03383297.0082519-.06721178.0182656-.1.03l-4.37 1.583 1.584-4.366c.012-.033.022-.067.031-.1l17.791-17.793 1.427 1.428 1.428 1.427zm33.448-9.257-1.441 1.44c-.1875683.187777-.4420908.2932867-.7075.2932867s-.5199317-.1055097-.7075-.2932867l-25.63-25.631c-.3903819-.3904999-.3903819-1.0235001 0-1.414l1.442-1.441c.3953495-.3775255 1.0176505-.3775255 1.413 0l25.63 25.63c.188216.1874757.2941001.442138.2942877.7077925.0001876.2656546-.1053367.5204662-.2932877.7082075zm-3.226-7.472-16.348-16.348c7.519-3.27 16.9-12.045 19.553-14.616l11.407 11.416c-2.571 2.65-11.345 12.029-14.612 19.548z"/><path id="Shape" d="m32.123 17.975c-.817.57-1.621 1.095-2.387 1.561-.3099605.1831191-.4975658.5187152-.4911951.8786701.0063706.3599549.2057337.6887022.5219799.8607384.3162462.1720363.7005564.1608041 1.0062152-.0294085.8-.488 1.642-1.037 2.5-1.631.2929578-.2045346.4545441-.5498234.4238908-.9057995-.0306532-.3559762-.248889-.6685584-.5725-.82-.323611-.1514417-.703433-.1187351-.9963908.0857995z"/><path id="Shape" d="m39.13 12.343c-1.261 1.138-2.541 2.226-3.8 3.233-.2870527.2200731-.4328892.5780038-.3813765.9360232.0515128.3580194.2923444.6603153.6297979.7905328.3374535.1302176.7189227.0680569.9975786-.162556 1.3-1.032 2.606-2.147 3.9-3.312.4100714-.3700308.4425307-1.0024286.0725-1.4125-.3700308-.4100714-1.0024286-.4425308-1.4125-.0725z"/></g></g></svg>